<svg width="416" height="368" viewBox="0 0 416 368" fill="none" xmlns="http://www.w3.org/2000/svg">
<path d="M320 16H384C388.243 16 392.313 17.6857 395.314 20.6863C398.314 23.6869 400 27.7565 400 32V66C400 78.2 395.154 89.9002 386.527 98.5269C377.9 107.154 366.2 112 354 112H320V16ZM320 16H48V208C48 229.217 56.4285 249.566 71.4315 264.569C86.4344 279.571 106.783 288 128 288H240C250.506 288 260.909 285.931 270.615 281.91C280.321 277.89 289.14 271.997 296.569 264.569C303.997 257.14 309.89 248.321 313.91 238.615C317.931 228.909 320 218.506 320 208V16ZM16 352H352" stroke="#D13B3B" stroke-width="32" stroke-linecap="round" stroke-linejoin="round"/>
</svg>
