<svg width="496" height="352" viewBox="0 0 496 352" fill="none" xmlns="http://www.w3.org/2000/svg">
<path d="M488 288H456V28C455.992 20.5765 453.039 13.4593 447.79 8.21008C442.541 2.96083 435.424 0.0082053 428 0H68C60.5765 0.0082053 53.4593 2.96083 48.2101 8.21008C42.9608 13.4593 40.0082 20.5765 40 28V288H8C5.87827 288 3.84344 288.843 2.34315 290.343C0.842854 291.843 0 293.878 0 296V324C0.0082053 331.424 2.96083 338.541 8.21007 343.79C13.4593 349.039 20.5765 351.992 28 352H468C475.424 351.992 482.541 349.039 487.79 343.79C493.039 338.541 495.992 331.424 496 324V296C496 293.878 495.157 291.843 493.657 290.343C492.157 288.843 490.122 288 488 288ZM56 28C56.0026 24.8182 57.2678 21.7675 59.5176 19.5176C61.7675 17.2678 64.8182 16.0026 68 16H428C431.182 16.0026 434.232 17.2678 436.482 19.5176C438.732 21.7675 439.997 24.8182 440 28V288H56V28ZM280 304V312H216V304H280ZM480 324C479.997 327.182 478.732 330.232 476.482 332.482C474.232 334.732 471.182 335.997 468 336H28C24.8182 335.997 21.7675 334.732 19.5176 332.482C17.2678 330.232 16.0026 327.182 16 324V304H200V320C200 322.122 200.843 324.157 202.343 325.657C203.843 327.157 205.878 328 208 328H288C290.122 328 292.157 327.157 293.657 325.657C295.157 324.157 296 322.122 296 320V304H480V324Z" fill="black"/>
<path d="M80 312H32C29.8783 312 27.8434 312.843 26.3431 314.343C24.8429 315.843 24 317.878 24 320C24 322.122 24.8429 324.157 26.3431 325.657C27.8434 327.157 29.8783 328 32 328H80C82.1217 328 84.1566 327.157 85.6569 325.657C87.1571 324.157 88 322.122 88 320C88 317.878 87.1571 315.843 85.6569 314.343C84.1566 312.843 82.1217 312 80 312Z" fill="black"/>
<path d="M112 312H104C101.878 312 99.8434 312.843 98.3431 314.343C96.8429 315.843 96 317.878 96 320C96 322.122 96.8429 324.157 98.3431 325.657C99.8434 327.157 101.878 328 104 328H112C114.122 328 116.157 327.157 117.657 325.657C119.157 324.157 120 322.122 120 320C120 317.878 119.157 315.843 117.657 314.343C116.157 312.843 114.122 312 112 312Z" fill="black"/>
<path d="M432 272V32C432 29.8783 431.157 27.8434 429.657 26.3431C428.157 24.8429 426.122 24 424 24H72C69.8783 24 67.8434 24.8429 66.3431 26.3431C64.8429 27.8434 64 29.8783 64 32V272C64 274.122 64.8429 276.157 66.3431 277.657C67.8434 279.157 69.8783 280 72 280H424C426.122 280 428.157 279.157 429.657 277.657C431.157 276.157 432 274.122 432 272ZM416 264H80V40H416V264Z" fill="black"/>
<path d="M212.031 222.946C213.873 223.999 216.058 224.276 218.105 223.718C220.152 223.16 221.893 221.811 222.946 219.969L286.946 107.969C287.469 107.057 287.807 106.05 287.941 105.007C288.074 103.964 288.001 102.905 287.725 101.891C287.449 100.876 286.976 99.9257 286.332 99.0942C285.689 98.2626 284.887 97.566 283.975 97.0444C283.062 96.5227 282.055 96.1861 281.012 96.0539C279.968 95.9216 278.909 95.9964 277.895 96.2738C276.881 96.5511 275.931 97.0258 275.101 97.6705C274.27 98.3152 273.574 99.1173 273.054 100.031L209.054 212.031C208.001 213.873 207.724 216.058 208.282 218.105C208.84 220.152 210.189 221.893 212.031 222.946V222.946Z" fill="black"/>
<path d="M299.2 230.4C300.897 231.673 303.031 232.22 305.131 231.92C307.232 231.62 309.127 230.497 310.4 228.8L358.4 164.8C359.439 163.415 360 161.731 360 160C360 158.269 359.439 156.585 358.4 155.2L310.4 91.2C309.77 90.3595 308.98 89.6515 308.076 89.1162C307.172 88.581 306.171 88.229 305.131 88.0804C304.091 87.9318 303.032 87.9896 302.015 88.2503C300.997 88.511 300.04 88.9697 299.2 89.6C298.36 90.2304 297.651 91.0201 297.116 91.9241C296.581 92.8281 296.229 93.8286 296.08 94.8686C295.932 95.9086 295.99 96.9677 296.25 97.9854C296.511 99.0032 296.97 99.9595 297.6 100.8L342 160L297.6 219.2C296.327 220.897 295.78 223.031 296.08 225.131C296.38 227.232 297.503 229.127 299.2 230.4Z" fill="black"/>
<path d="M185.6 228.8C186.873 230.497 188.768 231.62 190.869 231.92C192.969 232.22 195.103 231.673 196.8 230.4C198.497 229.127 199.62 227.232 199.92 225.131C200.22 223.031 199.673 220.897 198.4 219.2L154 160L198.4 100.8C199.673 99.1026 200.22 96.969 199.92 94.8686C199.62 92.7682 198.497 90.8731 196.8 89.6C195.103 88.327 192.969 87.7803 190.869 88.0804C188.768 88.3805 186.873 89.5026 185.6 91.2L137.6 155.2C136.561 156.585 136 158.269 136 160C136 161.731 136.561 163.415 137.6 164.8L185.6 228.8Z" fill="black"/>
</svg>
