<svg id="Layer_1" enable-background="new 0 0 504.34 504.34" height="512" viewBox="0 0 504.34 504.34" width="512" xmlns="http://www.w3.org/2000/svg"><path d="m381.541 205.011-125.175-54.424c-35.356-15.374-76.469 2.244-89.717 38.459l-18.075 49.404c-71.966 67.366-114.811 150.398-131.319 247.181-2.422 14.206 13.751 24.014 25.236 15.592 71.031-52.102 163.229-106.864 251.639-105.342 31.276.596 59.269-20.851 66.891-51.812l29.677-120.562c1.863-7.572-2.005-15.387-9.157-18.496z" fill="#828282"/><path d="m241.002 288.609c-14.729-14.917-37.563-32.689-69.807-54.333-6.143-4.124-14.31-3.499-19.751 1.511-70.046 64.454-116.614 146.807-134.189 249.843-2.419 14.191 13.736 24.025 25.236 15.592 64.279-47.148 120.807-77.703 172.815-93.407 8.724-2.635 13.49-12.025 10.47-20.621-2.265-6.445-1.397-8.813 12.951-19.259 10.774-7.844 25.53-18.587 25.166-37.66-.245-12.859-7.518-26.098-22.891-41.666z" fill="#a09f9f"/><path d="m381.541 205.011-125.175-54.424c-35.356-15.374-76.469 2.244-89.717 38.459l-1.218 3.329c34.605 29.696 81.378 60.388 130.068 64.401 32.315 2.663 60.537 7.555 83.833 12.903l11.365-46.171c1.864-7.573-2.004-15.388-9.156-18.497z" fill="#969696"/><path d="m477.593 99.75-231.728-98.453c-11.681-4.962-24.263 5.048-22.001 17.569 7.623 42.209-8.084 78.533-48.018 111.049-9.334 7.601-7.228 22.429 3.846 27.133l231.727 98.453c11.266 4.785 23.527-4.366 22.156-16.521-5.269-46.647 10.271-83.223 47.505-111.813 9.706-7.453 7.77-22.634-3.487-27.417z" fill="#828282"/><path d="m477.593 99.75-231.728-98.453c-11.681-4.962-24.263 5.048-22.001 17.569 6.619 36.653-4.365 68.866-33.517 98.003 20.755 8.926 46.513 13.762 78.463 11.529 73.75-5.154 133.852 17.78 175.39 41.856 8.055-16.064 20.315-30.369 36.88-43.089 9.706-7.451 7.77-22.632-3.487-27.415z" fill="#969696"/><path d="m477.593 99.75-231.728-98.453c-11.681-4.962-24.263 5.048-22.001 17.569 2.325 12.874 2.469 25.197.426 37.034 67.151 31.931 127.043 22.924 239.293 86.975 5.178-5.486 11.002-10.721 17.497-15.709 9.706-7.452 7.77-22.633-3.487-27.416z" fill="#a8a8a8"/><path d="m128.04 258.977c-58.214 61.993-95.484 136.951-110.785 226.653-1.665 9.764 5.88 18.69 15.771 18.69 10.762 0 11.617-8.027 68.59-43.126 4.541-26.556 16.528-59.274 44.356-93.254 49.675-60.657 6.84-95.33-17.932-108.963z" fill="#a8a8a8"/><path d="m204.095 231.56c0 16.303 11.867 29.52 26.506 29.52s26.506-13.216 26.506-29.52c0-16.303-11.867-29.519-26.506-29.519s-26.506 13.216-26.506 29.519z" fill="#60605f"/><path d="m457.119 273.54c-4.789 0 15.454 7.943-316.878-133.253-8.133-3.455-11.925-12.85-8.47-20.982s12.852-11.928 20.982-8.469l310.629 131.975c15.998 6.796 11.07 30.729-6.263 30.729z" fill="#828282"/></svg>